TITLE ""
FILE "P1Q_t_1588-1597.mp3" MP3
  TRACK 01 AUDIO
    TITLE "P1Q_t_1588-1597_01"
    INDEX 01 00:00:00
  TRACK 02 AUDIO
    TITLE "P1Q_t_1588-1597_02"
    INDEX 01 00:01:22
  TRACK 03 AUDIO
    TITLE "P1Q_t_1588-1597_03"
    INDEX 01 00:01:41
  TRACK 04 AUDIO
    TITLE "P1Q_t_1588-1597_04"
    INDEX 01 00:04:57
  TRACK 05 AUDIO
    TITLE "P1Q_t_1588-1597_05"
    INDEX 01 00:05:02
  TRACK 06 AUDIO
    TITLE "P1Q_t_1588-1597_06"
    INDEX 01 00:09:70
  TRACK 07 AUDIO
    TITLE "P1Q_t_1588-1597_07"
    INDEX 01 00:10:42
  TRACK 08 AUDIO
    TITLE "P1Q_t_1588-1597_08"
    INDEX 01 00:11:75
  TRACK 09 AUDIO
    TITLE "P1Q_t_1588-1597_09"
    INDEX 01 00:12:21
  TRACK 10 AUDIO
    TITLE "P1Q_t_1588-1597_10"
    INDEX 01 00:15:47
  TRACK 11 AUDIO
    TITLE "P1Q_t_1588-1597_11"
    INDEX 01 00:15:69
  TRACK 12 AUDIO
    TITLE "P1Q_t_1588-1597_12"
    INDEX 01 00:19:68
  TRACK 13 AUDIO
    TITLE "P1Q_t_1588-1597_13"
    INDEX 01 00:20:38
  TRACK 14 AUDIO
    TITLE "P1Q_t_1588-1597_14"
    INDEX 01 00:21:63
  TRACK 15 AUDIO
    TITLE "P1Q_t_1588-1597_15"
    INDEX 01 00:22:10
  TRACK 16 AUDIO
    TITLE "P1Q_t_1588-1597_16"
    INDEX 01 00:24:46
  TRACK 17 AUDIO
    TITLE "P1Q_t_1588-1597_17"
    INDEX 01 00:24:66
  TRACK 18 AUDIO
    TITLE "P1Q_t_1588-1597_18"
    INDEX 01 00:30:04
  TRACK 19 AUDIO
    TITLE "P1Q_t_1588-1597_19"
    INDEX 01 00:30:51
  TRACK 20 AUDIO
    TITLE "P1Q_t_1588-1597_20"
    INDEX 01 00:32:22
  TRACK 21 AUDIO
    TITLE "P1Q_t_1588-1597_21"
    INDEX 01 00:32:42
  TRACK 22 AUDIO
    TITLE "P1Q_t_1588-1597_22"
    INDEX 01 00:34:09
  TRACK 23 AUDIO
    TITLE "P1Q_t_1588-1597_23"
    INDEX 01 00:34:29
  TRACK 24 AUDIO
    TITLE "P1Q_t_1588-1597_24"
    INDEX 01 00:39:48
  TRACK 25 AUDIO
    TITLE "P1Q_t_1588-1597_25"
    INDEX 01 00:40:18
  TRACK 26 AUDIO
    TITLE "P1Q_t_1588-1597_26"
    INDEX 01 00:41:33
  TRACK 27 AUDIO
    TITLE "P1Q_t_1588-1597_27"
    INDEX 01 00:41:56
  TRACK 28 AUDIO
    TITLE "P1Q_t_1588-1597_28"
    INDEX 01 00:44:13
  TRACK 29 AUDIO
    TITLE "P1Q_t_1588-1597_29"
    INDEX 01 00:44:33
  TRACK 30 AUDIO
    TITLE "P1Q_t_1588-1597_30"
    INDEX 01 00:49:52
  TRACK 31 AUDIO
    TITLE "P1Q_t_1588-1597_31"
    INDEX 01 00:50:22
  TRACK 32 AUDIO
    TITLE "P1Q_t_1588-1597_32"
    INDEX 01 00:51:37
  TRACK 33 AUDIO
    TITLE "P1Q_t_1588-1597_33"
    INDEX 01 00:51:61
  TRACK 34 AUDIO
    TITLE "P1Q_t_1588-1597_34"
    INDEX 01 00:55:35
  TRACK 35 AUDIO
    TITLE "P1Q_t_1588-1597_35"
    INDEX 01 00:55:54
  TRACK 36 AUDIO
    TITLE "P1Q_t_1588-1597_36"
    INDEX 01 01:00:18
  TRACK 37 AUDIO
    TITLE "P1Q_t_1588-1597_37"
    INDEX 01 01:00:63
  TRACK 38 AUDIO
    TITLE "P1Q_t_1588-1597_38"
    INDEX 01 01:02:04
  TRACK 39 AUDIO
    TITLE "P1Q_t_1588-1597_39"
    INDEX 01 01:02:23
  TRACK 40 AUDIO
    TITLE "P1Q_t_1588-1597_40"
    INDEX 01 01:04:42
  TRACK 41 AUDIO
    TITLE "P1Q_t_1588-1597_41"
    INDEX 01 01:04:61
  TRACK 42 AUDIO
    TITLE "P1Q_t_1588-1597_42"
    INDEX 01 01:10:50
  TRACK 43 AUDIO
    TITLE "P1Q_t_1588-1597_43"
    INDEX 01 01:11:22
  TRACK 44 AUDIO
    TITLE "P1Q_t_1588-1597_44"
    INDEX 01 01:12:51
  TRACK 45 AUDIO
    TITLE "P1Q_t_1588-1597_45"
    INDEX 01 01:12:71
  TRACK 46 AUDIO
    TITLE "P1Q_t_1588-1597_46"
    INDEX 01 01:15:22
  TRACK 47 AUDIO
    TITLE "P1Q_t_1588-1597_47"
    INDEX 01 01:15:41
  TRACK 48 AUDIO
    TITLE "P1Q_t_1588-1597_48"
    INDEX 01 01:18:63
  TRACK 49 AUDIO
    TITLE "P1Q_t_1588-1597_49"
    INDEX 01 01:19:33
  TRACK 50 AUDIO
    TITLE "P1Q_t_1588-1597_50"
    INDEX 01 01:20:45
  TRACK 51 AUDIO
    TITLE "P1Q_t_1588-1597_51"
    INDEX 01 01:20:64
  TRACK 52 AUDIO
    TITLE "P1Q_t_1588-1597_52"
    INDEX 01 01:23:29
  TRACK 53 AUDIO
    TITLE "P1Q_t_1588-1597_53"
    INDEX 01 01:23:49
  TRACK 54 AUDIO
    TITLE "P1Q_t_1588-1597_54"
    INDEX 01 01:29:18
  TRACK 55 AUDIO
    TITLE "P1Q_t_1588-1597_55"
    INDEX 01 01:29:65
  TRACK 56 AUDIO
    TITLE "P1Q_t_1588-1597_56"
    INDEX 01 01:31:15
  TRACK 57 AUDIO
    TITLE "P1Q_t_1588-1597_57"
    INDEX 01 01:31:35
  TRACK 58 AUDIO
    TITLE "P1Q_t_1588-1597_58"
    INDEX 01 01:32:63
  TRACK 59 AUDIO
    TITLE "P1Q_t_1588-1597_59"
    INDEX 01 01:33:12
  TRACK 60 AUDIO
    TITLE "P1Q_t_1588-1597_60"
    INDEX 01 01:38:23
